<svg width="140" height="47" viewBox="0 0 140 47" fill="none" xmlns="http://www.w3.org/2000/svg">
<path fill-rule="evenodd" clip-rule="evenodd" d="M0.5 24.7738C3.44772 23.106 6.39545 21.477 9.34317 19.848C12.0582 16.0857 14.7344 12.3623 17.4494 8.60007L18.3803 8.75521C25.0127 7.165 31.6062 5.53599 38.2386 3.94577L38.6653 4.9542C39.8288 7.63043 41.0312 10.3454 42.1948 13.0217L49.7192 14.3792L50.1847 14.9997L49.5253 19.3438L58.64 21.3218L50.1071 1.61862L49.9132 1.11441L50.4562 0.998047L59.5708 22.0588L40.0228 42.6152C32.8086 40.482 25.5944 38.3876 18.3803 36.2544L18.4966 45.369H17.9536L17.8373 36.0992C12.2909 34.4702 6.74452 32.8412 1.19815 31.2122L3.71923 27.6827L0.5 24.7738ZM11.5928 18.568L17.4882 15.2712L17.4106 10.4618L11.5928 18.568ZM18.0312 14.9609L25.0126 11.0436L17.9536 9.80243L18.0312 14.9609ZM26.5253 10.1903L35.7175 5.07056L19.6214 8.98793L26.5253 10.1903ZM42.699 14.1852L44.4444 18.219L48.3617 19.0722L48.9435 15.31L42.699 14.1852ZM44.7159 18.8007C45.6467 20.8952 46.5388 22.9896 47.4697 25.0453L48.3229 19.5765L44.7159 18.8007ZM48.2842 26.9458C41.6518 27.9542 35.0194 28.9626 28.387 29.9711L39.5186 41.2965L39.5961 41.3353L58.2133 21.7485L49.3702 19.8092L48.2842 26.9458ZM27.7664 30.0874C24.586 30.5529 21.4444 31.0571 18.2639 31.5225L18.3027 35.0908L38.5101 41.025L27.7664 30.0874ZM17.7209 31.6389C15.2386 32.0267 12.7951 32.3758 10.3128 32.7636L17.7597 34.9357L17.7209 31.6389ZM8.60624 32.2594L4.45615 28.4584L2.90472 30.5916L8.60624 32.2594ZM3.99073 27.2561L8.60624 20.8564L1.39208 24.8901L3.99073 27.2561ZM27.3786 10.3454L41.5354 12.8665L37.8895 4.52756L37.6568 4.56634L27.3786 10.3454ZM44.0565 18.6844L21.7159 13.8362L28.0379 29.5444L47.5084 26.5579L44.0565 18.6844ZM42.0784 14.0689L25.8659 11.1987L22.0261 13.3319L43.8238 18.0638L42.0784 14.0689ZM18.0312 15.5815L18.2251 31.0183L27.4562 29.622C25.3229 24.3859 23.2285 19.111 21.1341 13.8749L18.0312 15.5815ZM10.8558 19.5765L4.80523 27.993L9.49831 32.337L17.7209 31.0959L17.527 15.8918L10.8558 19.5765Z" fill="#2F2A95"/>
<path d="M7.98553 9.0654C7.63646 9.0654 7.32617 9.3369 7.32617 9.72476C7.32617 10.0738 7.59767 10.3841 7.98553 10.3841C8.3346 10.3841 8.64489 10.1126 8.64489 9.72476C8.64489 9.37569 8.37339 9.0654 7.98553 9.0654ZM18.225 3.20874C17.682 3.20874 17.2553 3.63539 17.2553 4.17839C17.2553 4.72139 17.682 5.14803 18.225 5.14803C18.768 5.14803 19.1946 4.72139 19.1946 4.17839C19.1946 3.63539 18.768 3.20874 18.225 3.20874ZM43.7849 41.2576C44.1339 41.2576 44.4442 41.5292 44.4442 41.917C44.4442 42.2661 44.1727 42.5764 43.7849 42.5764C43.4358 42.5764 43.1255 42.3049 43.1255 41.917C43.1643 41.5292 43.4358 41.2576 43.7849 41.2576ZM8.72246 36.9912C8.17946 36.9912 7.75281 37.4179 7.75281 37.9608C7.75281 38.5039 8.17946 38.9305 8.72246 38.9305C9.26546 38.9305 9.6921 38.5039 9.6921 37.9608C9.65332 37.4179 9.22667 36.9912 8.72246 36.9912ZM46.8489 31.0182C47.198 31.0182 47.5083 31.2897 47.5083 31.6775C47.5083 32.0266 47.2368 32.3369 46.8489 32.3369C46.4999 32.3369 46.1896 32.0654 46.1896 31.6775C46.2284 31.3285 46.4999 31.0182 46.8489 31.0182ZM27.9602 28.8462C27.4172 28.8462 26.9906 29.2728 26.9906 29.8158C26.9906 29.9322 26.9906 30.0098 27.0294 30.0873L18.1086 44.3605C17.6044 44.3605 17.1778 44.7872 17.1778 45.3302C17.1778 45.8732 17.6044 46.2998 18.1474 46.2998C18.6904 46.2998 19.1171 45.8732 19.1171 45.3302C19.1171 45.2138 19.0783 45.0974 19.0395 44.9811L27.8827 30.7855H27.9214C28.4644 30.7855 28.8911 30.3588 28.8911 29.8158V29.777L49.2537 15.7754C49.3312 15.8141 49.4088 15.8141 49.5252 15.8141C50.0682 15.8141 50.4948 15.3875 50.4948 14.8445C50.4948 14.3015 50.0682 13.8749 49.5252 13.8749C49.4476 13.8749 49.37 13.8748 49.2924 13.9136L38.7039 4.64382L49.6027 2.00638C49.7579 2.16153 49.9906 2.2391 50.2233 2.2391C50.7663 2.2391 51.193 1.81245 51.193 1.26945C51.193 0.726449 50.7663 0.299805 50.2233 0.299805C49.7967 0.299805 49.4476 0.571306 49.3312 0.920379L38.3161 3.5966C38.1609 3.48024 37.967 3.44146 37.7731 3.44146C37.2301 3.44146 36.8034 3.8681 36.8034 4.4111C36.8034 4.95411 37.2301 5.38075 37.7731 5.38075C37.8118 5.38075 37.8118 5.38075 37.8506 5.38075L48.5943 14.7669C48.5943 14.8057 48.5943 14.8445 48.5943 14.8833C48.5943 14.9221 48.5943 14.9221 48.5943 14.9609L28.2317 28.885C28.1542 28.8462 28.0766 28.8462 27.9602 28.8462ZM21.2891 12.5173C20.7461 12.5173 20.3194 12.944 20.3194 13.487C20.3194 14.03 20.7461 14.4566 21.2891 14.4566C21.8321 14.4566 22.2587 14.03 22.2587 13.487C22.2587 12.944 21.8321 12.5173 21.2891 12.5173ZM17.7208 8.2509C17.1778 8.2509 16.7511 8.67755 16.7511 9.22055C16.7511 9.76355 17.1778 10.1902 17.7208 10.1902C18.2638 10.1902 18.6904 9.76355 18.6904 9.22055C18.6516 8.67755 18.225 8.2509 17.7208 8.2509Z" fill="#FA4616"/>
<path d="M113.677 15.3491H112.281H112.242V21.3609H113.561L116.897 17.4047V21.3996H118.293V15.3491H117.013L113.677 19.344V15.3491Z" fill="#2F2A95"/>
<path d="M109.799 17.3659V21.3609V21.3996H111.04V15.3491H109.721L107.472 19.1113L105.338 15.3491H103.864V21.3996H105.144V17.3659L107.161 20.7403H107.782L109.799 17.3659Z" fill="#2F2A95"/>
<path d="M78.1495 18.9561H79.2355L80.9809 21.3996H82.6486L80.3215 18.258L82.5323 15.3491H81.0196L79.2355 17.7926H78.1107V15.3491H76.7144V21.3609H78.1495V18.9561Z" fill="#2F2A95"/>
<path d="M121.706 27.9545H122.831L124.576 30.3592H126.244L123.917 27.2175L126.128 24.3086H124.615L122.831 26.7521H121.706V24.3086H120.31V30.3592H121.706V27.9545Z" fill="#2F2A95"/>
<path d="M114.531 24.3086H113.134H113.096V30.3592H114.414L117.75 26.3642V30.3592H119.146V24.3086H117.866L114.531 28.3035V24.3086Z" fill="#2F2A95"/>
<path d="M107.588 24.3086H106.192V30.3592H107.588V27.9545H110.613V30.3592H112.01V24.3086H110.613V26.7521H107.588V24.3086Z" fill="#2F2A95"/>
<path d="M105.106 30.3592V24.3086H103.671V29.1568H101.343V24.3086H99.9471V29.1568H97.62V24.3086H96.2237V30.3592H105.106Z" fill="#2F2A95"/>
<path d="M88.5441 30.3592V24.3474H83.6959L83.5795 26.6745C83.5407 27.7605 83.5019 28.769 82.4159 29.3895L83.2692 30.5531C84.7043 29.5447 84.8594 28.4199 84.937 26.9072L84.9758 25.5109H87.1478V30.3592H88.5441Z" fill="#2F2A95"/>
<path d="M71.4783 27.9545H72.5643L74.3873 30.3592H76.0163L73.6891 27.2175L75.8999 24.3086H74.3873L72.6031 26.7521H71.4783V24.3086H70.082V30.3592H71.4783V27.9545Z" fill="#2F2A95"/>
<path fill-rule="evenodd" clip-rule="evenodd" d="M72.797 15.2715C73.6891 15.2715 74.3485 15.4654 74.8527 15.8921C75.3181 16.3187 75.5508 16.9781 75.5508 17.8314V21.3609H74.2321V20.6239C74.077 20.8954 73.8055 21.0894 73.4952 21.2445C73.1849 21.3996 72.797 21.4384 72.3316 21.4384C71.8662 21.4384 71.4783 21.3609 71.1292 21.2057C70.7802 21.0506 70.5087 20.8179 70.3535 20.5464C70.1984 20.2749 70.082 19.9646 70.082 19.6155C70.082 19.0725 70.276 18.6459 70.7026 18.2968C71.0905 17.9865 71.7498 17.7926 72.6031 17.7926H74.1545V17.715C74.1545 17.2883 74.0382 16.9781 73.7667 16.7453C73.4952 16.5126 73.1461 16.3963 72.6419 16.3963C72.2928 16.3963 71.9825 16.4351 71.6335 16.5514C71.3232 16.6678 71.0129 16.8229 70.819 16.9781L70.276 15.9308C70.5862 15.6981 70.9741 15.5042 71.4007 15.3878C71.5267 15.3764 71.6559 15.3616 71.7886 15.3464C72.1055 15.31 72.4416 15.2715 72.797 15.2715ZM73.534 20.1973C73.2625 20.3524 72.9522 20.43 72.6031 20.43C72.2153 20.43 71.9438 20.3524 71.7498 20.2361C71.5559 20.0809 71.4395 19.887 71.4395 19.6155C71.4395 19.0725 71.8274 18.801 72.6419 18.801H74.1158V19.4991C73.9994 19.8094 73.8055 20.0421 73.534 20.1973Z" fill="#2F2A95"/>
<path fill-rule="evenodd" clip-rule="evenodd" d="M85.5188 15.2715C86.4109 15.2715 87.0702 15.4654 87.5744 15.8921C88.0399 16.3187 88.2726 16.9781 88.2726 17.8314V21.3609H86.9539V20.6239C86.7987 20.8954 86.5272 21.0894 86.2169 21.2445C85.9067 21.3996 85.5188 21.4384 85.0534 21.4384C84.5879 21.4384 84.2001 21.3609 83.851 21.2057C83.5019 21.0506 83.2692 20.8179 83.0753 20.5464C82.8814 20.2749 82.8038 19.9646 82.8038 19.6155C82.8038 19.0725 82.9977 18.6459 83.4244 18.2968C83.8122 17.9865 84.4716 17.7926 85.3249 17.7926H86.8763V17.715C86.8763 17.2883 86.7599 16.9781 86.4884 16.7453C86.2169 16.5126 85.8679 16.3963 85.3636 16.3963C85.0146 16.3963 84.7043 16.4351 84.3552 16.5514C84.0449 16.6678 83.7346 16.8229 83.5407 16.9781L82.9977 15.9308C83.308 15.6981 83.6959 15.5042 84.1225 15.3878C84.2469 15.3765 84.3778 15.3619 84.5125 15.3469C84.8398 15.3104 85.189 15.2715 85.5188 15.2715ZM86.2557 20.1973C85.9842 20.3524 85.6739 20.43 85.3249 20.43C84.9758 20.43 84.7043 20.3524 84.4716 20.2361C84.2777 20.0809 84.1613 19.887 84.1613 19.6155C84.1613 19.0725 84.5491 18.801 85.3636 18.801H86.8375V19.4991C86.7212 19.8094 86.5272 20.0421 86.2557 20.1973Z" fill="#2F2A95"/>
<path fill-rule="evenodd" clip-rule="evenodd" d="M96.1849 20.1973V22.2529H94.8662V21.3996H90.2119V22.2529H88.8932V20.1973C90.1671 20.1973 90.2455 18.9676 90.3145 17.8866C90.319 17.8157 90.3235 17.7454 90.3282 17.6762L90.4446 15.3491H95.3316V20.1973H96.1849ZM93.8965 20.1973H91.2203C91.5306 19.4991 91.6082 18.7622 91.6857 17.9477L91.7245 16.5514H93.8965V20.1973Z" fill="#2F2A95"/>
<path fill-rule="evenodd" clip-rule="evenodd" d="M102.235 16.7453C102.507 17.2108 102.623 17.7926 102.623 18.3744C102.623 18.4907 102.623 18.6071 102.585 18.801H97.8527C97.9303 19.2276 98.163 19.6155 98.5121 19.8482C98.8611 20.1197 99.2878 20.2361 99.8308 20.2361C100.49 20.2361 101.033 20.0034 101.46 19.5767L102.235 20.43C101.964 20.7403 101.615 21.0118 101.188 21.1669C100.762 21.3221 100.296 21.3996 99.792 21.3996C99.1326 21.3996 98.5508 21.2833 98.0466 21.0118C97.5424 20.7403 97.1545 20.3912 96.883 19.9258C96.6115 19.4604 96.4564 18.9174 96.4564 18.3356C96.4564 17.7538 96.5728 17.2108 96.8443 16.7453C97.1158 16.2799 97.4648 15.8921 97.969 15.6593C98.4345 15.3878 98.9775 15.2715 99.5593 15.2715C100.141 15.2715 100.684 15.3878 101.149 15.6593C101.615 15.9308 101.964 16.2799 102.235 16.7453ZM98.4345 16.7841C98.7448 16.5126 99.1326 16.3963 99.5981 16.3963C100.025 16.3963 100.413 16.5514 100.723 16.8229C101.033 17.0944 101.188 17.4435 101.266 17.8701H97.8527C97.9303 17.4047 98.1242 17.0556 98.4345 16.7841Z" fill="#2F2A95"/>
<path fill-rule="evenodd" clip-rule="evenodd" d="M125.003 15.3491V21.3996H123.723V19.5767H122.133L120.891 21.3996H119.379L120.814 19.3828C120.387 19.2276 120.038 18.9949 119.805 18.6846C119.573 18.3744 119.456 17.9865 119.456 17.5211C119.456 16.8229 119.689 16.2799 120.193 15.9308C120.698 15.543 121.357 15.3491 122.21 15.3491H125.003ZM120.93 17.5599C120.93 16.8617 121.357 16.5126 122.288 16.5126H123.762V18.5683H122.249C121.357 18.5683 120.93 18.2192 120.93 17.5599Z" fill="#2F2A95"/>
<path fill-rule="evenodd" clip-rule="evenodd" d="M78.8864 24.2698C79.7785 24.2698 80.4378 24.4637 80.9421 24.8904C81.4075 25.317 81.6402 25.9764 81.6402 26.8297V30.3592H80.3215V29.6222C80.1663 29.8937 79.8948 30.0877 79.5846 30.2428C79.2743 30.398 78.8864 30.4367 78.421 30.4367C77.9556 30.4367 77.5677 30.3592 77.2186 30.204C76.8695 30.0489 76.598 29.8162 76.4429 29.5447C76.249 29.2732 76.1714 28.9629 76.1714 28.6138C76.1714 28.0708 76.3653 27.6442 76.792 27.2951C77.1798 26.9848 77.8392 26.7909 78.6925 26.7909H80.2439V26.7133C80.2439 26.2867 80.1276 25.9764 79.8561 25.7437C79.5846 25.5109 79.2355 25.3946 78.7313 25.3946C78.3822 25.3946 78.0719 25.4334 77.7228 25.5497C77.4126 25.6661 77.1023 25.8212 76.9083 25.9764L76.3266 25.0067C76.6368 24.774 77.0247 24.5801 77.4513 24.4637C77.9168 24.3086 78.3822 24.2698 78.8864 24.2698ZM79.6233 29.1568C79.3518 29.312 79.0416 29.3895 78.6925 29.3895C78.3434 29.3895 78.0331 29.3507 77.8392 29.1956C77.6453 29.0405 77.5289 28.8465 77.5289 28.575C77.5289 28.032 77.9168 27.7605 78.7313 27.7605H80.2051V28.4587C80.0888 28.769 79.8948 29.0017 79.6233 29.1568Z" fill="#2F2A95"/>
<path fill-rule="evenodd" clip-rule="evenodd" d="M92.3839 24.2698C93.276 24.2698 93.9353 24.4637 94.4395 24.8904C94.905 25.317 95.1377 25.9764 95.1377 26.8297V30.3592H93.7802V29.6222C93.625 29.8937 93.3535 30.0877 93.0433 30.2428C92.733 30.398 92.3451 30.4367 91.8797 30.4367C91.4142 30.4367 91.0264 30.3592 90.6773 30.204C90.3282 30.0489 90.0567 29.8162 89.9016 29.5447C89.7077 29.2732 89.6301 28.9629 89.6301 28.6138C89.6301 28.0708 89.824 27.6442 90.2507 27.2951C90.6385 26.9848 91.2979 26.7909 92.1512 26.7909H93.7026V26.7133C93.7026 26.2867 93.5862 25.9764 93.3147 25.7437C93.0432 25.5109 92.6942 25.3946 92.19 25.3946C91.8409 25.3946 91.5306 25.4334 91.1815 25.5497C90.8712 25.6661 90.561 25.8212 90.367 25.9764L89.824 24.9292C90.1343 24.6964 90.5222 24.5025 90.9488 24.3862C91.4142 24.3086 91.8797 24.2698 92.3839 24.2698ZM93.1208 29.1568C92.8493 29.312 92.539 29.3895 92.19 29.3895C91.8409 29.3895 91.5306 29.3507 91.3367 29.1956C91.1427 29.0405 91.0264 28.8465 91.0264 28.575C91.0264 28.032 91.4142 27.7605 92.2287 27.7605H93.7026V28.4587C93.5862 28.769 93.3923 29.0017 93.1208 29.1568Z" fill="#2F2A95"/>
<path fill-rule="evenodd" clip-rule="evenodd" d="M129.463 30.4367C128.843 30.4367 128.3 30.3204 127.795 30.0489C127.291 29.7774 126.942 29.4283 126.632 28.9629C126.36 28.4975 126.205 27.9545 126.205 27.3727C126.205 26.7909 126.36 26.2479 126.632 25.7824C126.903 25.317 127.291 24.9679 127.795 24.6964C128.3 24.4249 128.843 24.3086 129.463 24.3086C130.084 24.3086 130.627 24.4249 131.131 24.6964C131.635 24.9679 131.984 25.317 132.295 25.7824C132.566 26.2479 132.721 26.7909 132.721 27.3727C132.721 27.9545 132.566 28.4975 132.295 28.9629C132.023 29.4283 131.635 29.8162 131.131 30.0489C130.627 30.2816 130.084 30.4367 129.463 30.4367ZM130.743 28.7302C130.394 29.0792 129.967 29.2344 129.463 29.2344C128.959 29.2344 128.532 29.0405 128.183 28.7302C127.834 28.3811 127.679 27.9545 127.679 27.3727C127.679 26.8297 127.834 26.3642 128.183 26.0152C128.532 25.6661 128.959 25.5109 129.463 25.5109C129.967 25.5109 130.394 25.6661 130.743 26.0152C131.092 26.3642 131.247 26.7909 131.247 27.3727C131.247 27.9157 131.092 28.3811 130.743 28.7302Z" fill="#2F2A95"/>
<path fill-rule="evenodd" clip-rule="evenodd" d="M139.276 28.6526C139.276 27.9157 138.888 27.4502 138.151 27.2175C138.423 27.1012 138.655 26.9072 138.849 26.6745C139.004 26.4418 139.082 26.1703 139.082 25.86C139.082 25.3558 138.888 24.9679 138.461 24.6964C138.035 24.4249 137.453 24.3086 136.716 24.3086H133.768V30.3204H136.832C137.647 30.3204 138.268 30.204 138.655 29.8937C139.082 29.6222 139.276 29.1956 139.276 28.6526ZM136.716 29.312C137.492 29.312 137.88 29.0405 137.88 28.5362C137.88 28.2647 137.802 28.0708 137.608 27.9545C137.414 27.8381 137.143 27.7605 136.755 27.7605H135.087V29.312H136.716ZM136.6 26.8297H135.126V25.317H136.6C137.337 25.317 137.686 25.5497 137.686 26.0539C137.686 26.5582 137.337 26.8297 136.6 26.8297Z" fill="#2F2A95"/>
</svg>
